<?xml version="1.0" standalone="no"?>
<!DOCTYPE svg PUBLIC "-//W3C//DTD SVG 20010904//EN"
 "http://www.w3.org/TR/2001/REC-SVG-20010904/DTD/svg10.dtd">
<svg version="1.0" xmlns="http://www.w3.org/2000/svg"
 width="256.000000pt" height="256.000000pt" viewBox="0 0 256.000000 256.000000"
 preserveAspectRatio="xMidYMid meet">

<g transform="translate(0.000000,256.000000) scale(0.100000,-0.100000)"
fill="#000000" stroke="none">
<path d="M753 2477 c-30 -30 -29 -60 2 -83 14 -10 25 -25 25 -33 0 -11 3 -12
11 -4 15 15 39 5 32 -14 -5 -12 -8 -12 -15 -1 -8 10 -9 9 -5 -3 3 -9 0 -22 -6
-28 -8 -8 -8 -11 1 -11 7 0 12 5 12 10 0 6 5 10 11 10 5 0 8 -4 5 -9 -9 -13
33 -1 42 13 4 6 7 20 7 31 0 11 8 21 18 23 10 2 17 -3 17 -12 0 -9 4 -16 9
-16 14 0 69 -57 76 -79 3 -11 1 -37 -4 -58 -7 -23 -11 -158 -11 -333 0 -162
-5 -315 -10 -338 -15 -62 -19 -185 -8 -199 5 -7 7 -17 3 -23 -3 -5 -7 -75 -8
-155 l-2 -146 38 3 c21 1 40 5 43 9 2 4 4 191 4 416 -1 361 0 534 1 708 1 59
-5 118 -15 161 -11 46 -75 112 -111 116 -24 2 -31 8 -33 31 -3 21 -9 27 -26
27 -13 0 -36 2 -52 5 -21 3 -35 -1 -51 -18z m75 -24 c13 -25 4 -43 -19 -43
-25 0 -35 25 -19 45 16 20 27 19 38 -2z m36 -99 c5 -12 2 -15 -10 -10 -14 5
-15 4 -4 -9 8 -9 8 -15 2 -15 -16 0 -23 16 -16 34 8 21 20 20 28 0z"/>
<path d="M1210 2335 c-21 -8 -48 -30 -67 -56 l-32 -44 0 -611 -1 -611 23 2
c12 1 30 3 40 4 13 1 17 11 17 49 l1 47 15 -35 15 -34 15 29 c14 26 15 65 10
270 -4 192 -7 829 -3 883 0 14 57 17 57 2 0 -11 39 -13 64 -4 9 3 16 13 16 21
0 8 4 12 9 9 5 -3 11 4 15 17 11 41 7 47 -25 45 -20 -2 -34 3 -40 15 -12 20
-75 21 -129 2z m90 -30 c0 -8 5 -15 10 -15 6 0 10 -4 10 -10 0 -6 -9 -6 -22
-2 -27 10 -58 5 -58 -10 0 -5 -7 -8 -15 -4 -8 3 -14 2 -13 -2 1 -4 -3 -18 -9
-32 -6 -14 -13 -32 -16 -40 -3 -8 -6 6 -6 32 -1 44 1 47 33 58 19 6 40 18 46
26 16 18 40 18 40 -1z m-10 -39 c0 -2 -7 -7 -16 -10 -8 -3 -12 -2 -9 4 6 10
25 14 25 6z m-88 -140 c7 5 8 2 2 -7 -13 -21 -14 -42 -3 -56 12 -14 4 -33 -14
-32 -9 0 -9 2 1 6 6 2 12 9 12 14 0 6 -4 8 -10 4 -5 -3 -9 17 -8 52 1 32 4 48
6 35 2 -13 8 -19 14 -16z m-10 -141 c-2 -14 -6 -25 -8 -25 -2 0 -4 11 -4 25 0
14 4 25 9 25 4 0 6 -11 3 -25z m35 -31 c-3 -3 -12 -4 -19 -1 -8 3 -5 6 6 6 11
1 17 -2 13 -5z m-40 -26 c-3 -8 -6 -5 -6 6 -1 11 2 17 5 13 3 -3 4 -12 1 -19z
m33 2 c0 -5 -2 -10 -4 -10 -3 0 -8 5 -11 10 -3 6 -1 10 4 10 6 0 11 -4 11 -10z
m-29 -72 c-1 -23 2 -44 7 -47 6 -3 4 -12 -4 -19 -12 -11 -14 -2 -14 54 0 37 3
64 7 60 4 -3 6 -25 4 -48z m29 37 c0 -8 -2 -15 -4 -15 -2 0 -6 7 -10 15 -3 8
-1 15 4 15 6 0 10 -7 10 -15z m-20 -139 c0 -3 -4 -8 -10 -11 -5 -3 -10 -1 -10
4 0 6 5 11 10 11 6 0 10 -2 10 -4z m-6 -95 c-1 -48 0 -51 20 -46 19 4 18 4 -2
-7 -21 -10 -23 -17 -19 -57 2 -25 8 -57 12 -71 6 -22 5 -22 -9 4 -12 22 -16
54 -15 132 0 57 4 102 7 100 4 -2 7 -27 6 -55z m-3 -242 c-9 -22 -10 -22 -10
-3 -1 11 2 24 6 27 12 12 14 0 4 -24z m29 -49 c13 -11 19 -20 13 -20 -5 0 -18
9 -28 20 -10 11 -16 20 -13 20 3 0 15 -9 28 -20z m-10 -31 c0 -5 -4 -9 -10 -9
-5 0 -10 7 -10 16 0 8 5 12 10 9 6 -3 10 -10 10 -16z m-7 -70 c-4 -15 -8 -17
-14 -8 -6 11 4 28 18 29 0 0 -1 -9 -4 -21z m35 -74 c-3 -3 -9 2 -12 12 -6 14
-5 15 5 6 7 -7 10 -15 7 -18z m-28 -10 c-7 -9 -15 -13 -19 -10 -3 3 1 10 9 15
21 14 24 12 10 -5z"/>
<path d="M1548 2058 c-3 -7 -4 -30 -4 -51 2 -46 -10 -43 -47 11 -16 23 -31 42
-35 42 -24 -1 -33 -24 -38 -103 -6 -84 -5 -87 15 -87 19 0 21 6 21 56 0 48 2
55 15 44 21 -18 68 -101 60 -108 -3 -4 -11 0 -16 8 -9 12 -10 12 -5 -2 6 -20
-10 -25 -17 -5 -2 6 -8 9 -12 5 -4 -4 -1 -18 8 -31 15 -23 20 -24 136 -25 87
0 121 3 121 11 0 8 3 9 8 2 13 -19 50 -15 55 6 3 10 2 19 -3 19 -4 0 -10 13
-13 29 -5 23 -11 30 -29 29 -64 -4 -78 1 -78 28 0 26 2 26 45 22 39 -5 45 -3
45 13 0 15 -8 19 -40 19 -29 0 -42 5 -50 20 -10 19 -8 20 45 20 48 0 56 3 53
17 -2 13 -17 17 -71 20 l-67 4 -1 -33 c0 -18 -2 -63 -3 -100 -2 -54 1 -68 13
-71 9 -3 4 -5 -11 -6 -14 0 -28 2 -31 7 -2 4 -2 2 -1 -5 2 -7 -1 -15 -6 -18
-10 -6 -14 8 -11 34 2 7 -2 11 -6 8 -5 -3 -10 33 -11 80 -2 47 -5 90 -8 94 -8
13 -21 11 -26 -3z m37 -198 c3 -5 1 -18 -5 -27 -10 -16 -11 -16 -7 4 3 15 1
20 -9 16 -8 -3 -14 -9 -14 -15 0 -5 -4 -6 -10 -3 -6 4 -5 11 3 20 14 17 33 19
42 5z m129 -2 c-3 -4 -11 -5 -19 -1 -21 7 -19 12 4 10 11 0 18 -5 15 -9z m46
2 c0 -5 -4 -10 -9 -10 -6 0 -13 5 -16 10 -3 6 1 10 9 10 9 0 16 -4 16 -10z
m-109 -33 c-10 -9 -11 -8 -5 6 3 10 9 15 12 12 3 -3 0 -11 -7 -18z m54 -5 c-3
-3 -11 0 -18 7 -9 10 -8 11 6 5 10 -3 15 -9 12 -12z"/>
<path d="M1863 2063 c-35 -7 -29 -33 7 -33 l30 0 0 -85 c0 -47 4 -85 9 -85 14
0 33 28 26 40 -3 5 -2 10 3 10 5 0 12 -9 15 -20 3 -11 2 -18 -3 -15 -4 3 -13
-2 -20 -10 -7 -9 -21 -13 -31 -10 -13 4 -19 1 -19 -9 0 -10 7 -13 21 -11 12 3
19 1 15 -2 -13 -13 -37 -11 -43 3 -3 8 -10 14 -16 14 -6 0 -20 8 -31 18 -16
13 -18 14 -8 1 7 -9 9 -25 5 -35 -5 -16 -4 -17 8 -7 11 9 18 8 33 -3 22 -15
81 -20 72 -5 -4 5 4 7 16 3 17 -4 20 -2 15 11 -3 9 0 18 9 21 10 4 14 22 14
61 0 39 4 57 14 61 8 3 22 17 31 31 14 21 15 27 4 34 -8 5 -22 6 -31 3 -12 -3
-18 0 -18 10 0 13 -11 16 -52 15 -29 -1 -63 -4 -75 -6z m115 -40 c-10 -2 -18
-9 -18 -14 0 -6 4 -7 10 -4 5 3 7 0 4 -9 -3 -9 -12 -12 -22 -9 -14 5 -14 2 3
-18 18 -21 18 -22 1 -9 -17 14 -18 13 -12 -8 5 -13 3 -22 -3 -22 -12 0 -15 82
-4 93 3 4 18 6 32 6 17 -1 20 -3 9 -6z"/>
<path d="M206 2035 c-52 -52 -38 -145 25 -167 30 -10 37 -22 19 -33 -6 -3 -10
0 -10 7 0 10 -2 10 -9 -1 -5 -8 -14 -10 -22 -6 -8 5 -5 -2 6 -14 15 -18 27
-21 58 -18 21 3 46 13 55 22 16 17 16 17 0 12 -10 -3 -24 1 -33 9 -13 13 -15
13 -15 1 0 -8 -7 -20 -15 -27 -12 -10 -12 -7 1 19 9 17 19 29 23 26 9 -5 51
40 51 54 0 20 -23 23 -36 6 -7 -10 -26 -19 -42 -21 -36 -4 -58 30 -47 73 12
51 47 69 77 41 19 -19 48 -21 48 -4 0 22 -40 46 -77 46 -21 0 -41 -9 -57 -25z"/>
<path d="M447 2053 c-4 -3 -7 -12 -7 -19 0 -7 -16 -46 -35 -87 -22 -49 -32
-84 -29 -102 3 -18 1 -24 -6 -20 -6 4 -9 13 -6 21 3 8 0 11 -10 7 -9 -3 -14 1
-14 13 -1 18 -1 18 -11 1 -6 -9 -16 -14 -22 -11 -7 4 -8 3 -4 -2 5 -5 16 -9
25 -9 10 0 16 -7 14 -16 -6 -37 88 -33 120 5 10 12 17 15 18 9 0 -7 -5 -13
-12 -13 -17 0 -1 -13 20 -15 9 -1 26 -6 36 -10 13 -6 21 -4 24 3 2 7 9 9 14 5
7 -4 9 2 6 15 -4 12 -2 22 4 22 5 0 2 7 -6 16 -9 8 -16 20 -16 25 0 6 -14 46
-31 90 -22 55 -37 79 -49 79 -9 0 -20 -3 -23 -7z m33 -93 c0 -11 -4 -20 -10
-20 -5 0 -10 9 -10 20 0 11 5 20 10 20 6 0 10 -9 10 -20z m28 -71 c2 -10 -5
-19 -18 -22 -11 -3 -20 -1 -20 4 0 5 -4 9 -10 9 -5 0 -7 -8 -4 -17 5 -15 4
-16 -5 -3 -10 13 -12 13 -21 0 -13 -21 -12 -6 2 25 9 21 18 25 42 23 19 -2 32
-9 34 -19z m-3 -39 c3 -5 1 -10 -4 -10 -6 0 -11 5 -11 10 0 6 2 10 4 10 3 0 8
-4 11 -10z m52 -4 c0 -8 -9 -17 -19 -19 -10 -3 -18 -1 -18 4 0 5 5 9 11 9 5 0
7 5 4 10 -3 6 0 10 8 10 7 0 14 -6 14 -14z"/>
<path d="M605 2030 c-4 -17 -4 -47 0 -68 3 -21 1 -50 -4 -65 -9 -22 -7 -28 7
-35 9 -5 23 -7 31 -4 12 4 12 3 0 -10 -14 -16 -39 -13 -39 4 0 5 -4 6 -10 3
-20 -12 -10 -41 18 -50 15 -6 57 -8 95 -4 53 4 72 11 90 30 25 26 51 73 37 64
-14 -9 -12 9 3 24 6 8 7 11 1 8 -8 -5 -11 9 -9 43 1 27 -1 47 -6 45 -4 -3 -12
2 -17 11 -8 14 -9 12 -9 -9 0 -16 4 -24 10 -20 6 4 7 1 2 -7 -4 -7 -2 -16 6
-22 11 -8 11 -9 -2 -5 -9 3 -21 1 -25 -3 -5 -5 -15 -5 -23 -1 -11 7 -10 13 4
34 16 24 15 27 -4 46 -17 17 -34 21 -85 21 -64 0 -65 0 -71 -30z m96 -25 c0
-5 -7 -12 -16 -13 -23 -5 -47 6 -40 19 8 13 56 8 56 -6z m14 -80 c0 -5 -15
-11 -32 -13 -25 -3 -33 1 -33 13 0 12 8 16 33 13 17 -2 32 -7 32 -13z"/>
<path d="M765 1981 c-6 -11 9 -23 19 -14 9 9 7 23 -3 23 -6 0 -12 -4 -16 -9z"/>
<path d="M1469 1841 c6 -10 7 -22 3 -26 -4 -5 -1 -5 6 -1 9 5 9 12 2 27 -6 10
-13 19 -16 19 -2 0 0 -8 5 -19z"/>
<path d="M1437 1836 c-3 -8 -2 -18 3 -21 13 -8 20 9 11 24 -6 10 -10 9 -14 -3z"/>
<path d="M426 1551 c-3 -4 -6 -54 -7 -113 -2 -101 -3 -105 -23 -100 -11 3 -15
7 -8 10 6 2 12 12 12 23 0 16 -7 19 -54 19 -45 0 -55 3 -59 19 -7 27 0 31 55
31 36 0 48 4 48 15 0 11 -12 15 -49 15 -35 0 -51 4 -55 16 -11 28 5 36 55 32
43 -4 49 -3 49 13 0 17 -9 19 -70 19 l-70 0 -1 -77 c-2 -121 -1 -123 53 -125
28 -1 33 -4 24 -14 -7 -8 -15 -9 -23 -2 -7 5 -17 7 -24 3 -6 -4 -15 -1 -20 6
-8 12 -10 12 -18 0 -7 -11 -9 -11 -13 0 -4 11 -8 11 -19 2 -16 -13 -49 0 -36
14 5 4 13 1 18 -7 9 -13 10 -12 6 2 -3 9 3 24 14 34 14 12 19 30 19 63 -1 65
-24 89 -92 97 -50 6 -54 5 -64 -17 -5 -13 -10 -58 -10 -99 l1 -75 33 -3 c17
-2 32 -8 32 -13 0 -6 -4 -7 -10 -4 -5 3 -10 -1 -10 -10 0 -9 -5 -13 -11 -9 -7
4 -10 1 -7 -6 5 -17 73 -24 98 -10 15 8 31 7 61 -1 34 -11 42 -10 50 2 5 8 9
9 9 3 0 -7 26 -11 70 -11 38 0 67 4 64 8 -3 5 1 6 9 4 7 -3 24 -2 38 3 18 7
27 5 35 -6 8 -11 19 -13 39 -8 23 6 26 9 14 17 -23 15 7 11 48 -6 40 -17 66
-20 43 -5 -8 5 -10 10 -4 10 6 0 14 -3 17 -6 12 -13 77 -13 77 -1 0 9 2 9 8 0
11 -17 52 11 52 35 0 14 2 15 9 2 6 -8 7 -19 4 -25 -4 -5 -2 -7 2 -2 11 10 14
48 3 41 -4 -3 -8 1 -8 8 -1 9 -5 7 -14 -5 -13 -16 -14 -16 -20 5 -9 35 -8 38
14 38 12 0 32 -11 46 -25 14 -14 31 -25 39 -25 16 0 29 17 18 22 -8 3 -52 116
-60 156 -4 17 -11 22 -26 20 -24 -3 -35 -22 -70 -118 -13 -36 -29 -64 -35 -63
-7 2 -12 -1 -12 -6 0 -5 10 -11 21 -13 19 -3 18 -4 -7 -14 l-29 -10 3 92 c3
88 4 92 28 98 13 4 24 13 24 21 0 12 -16 15 -76 15 -66 0 -75 -2 -72 -17 2
-11 13 -18 28 -18 24 0 25 -2 28 -87 2 -76 5 -86 19 -81 10 4 14 2 10 -4 -4
-6 -23 -13 -43 -15 -29 -3 -33 -2 -20 7 20 15 21 29 1 21 -8 -3 -15 -1 -15 5
0 6 -5 7 -11 4 -6 -4 -8 -14 -5 -22 3 -8 2 -12 -3 -9 -5 3 -7 32 -5 63 8 126
-25 212 -40 108 -4 -25 -13 -45 -19 -45 -7 0 -23 20 -35 44 -22 40 -56 64 -66
47z m-243 -71 c2 -9 -2 -31 -9 -49 -9 -23 -20 -31 -37 -31 -29 0 -35 17 -29
76 l4 42 33 -11 c18 -5 35 -18 38 -27z m317 -65 c16 -33 19 -49 11 -62 -8 -14
-10 -15 -11 -3 0 13 -1 13 -10 0 -8 -12 -10 -12 -10 -1 0 8 -8 4 -21 -10 -11
-13 -18 -19 -15 -12 4 6 3 13 -1 16 -5 2 -2 2 5 1 8 -3 12 14 12 56 0 33 4 60
9 60 5 0 19 -20 31 -45z m324 30 c-4 -8 -8 -15 -10 -15 -2 0 -4 7 -4 15 0 8 4
15 10 15 5 0 7 -7 4 -15z m-664 -99 c0 -3 -4 -8 -10 -11 -5 -3 -10 -1 -10 4 0
6 5 11 10 11 6 0 10 -2 10 -4z m214 -12 c5 -14 4 -15 -9 -4 -17 14 -19 20 -6
20 5 0 12 -7 15 -16z m193 10 c-3 -3 -12 -4 -19 -1 -8 3 -5 6 6 6 11 1 17 -2
13 -5z m-267 -18 c0 -3 -4 -8 -10 -11 -5 -3 -10 -1 -10 4 0 6 5 11 10 11 6 0
10 -2 10 -4z m-155 -16 c3 -6 -1 -7 -9 -4 -18 7 -21 14 -7 14 6 0 13 -4 16
-10z"/>
<path d="M1613 1477 c-5 -43 -5 -81 -1 -83 4 -3 8 -17 8 -32 0 -19 -3 -23 -9
-13 -6 9 -10 4 -13 -18 l-5 -31 94 0 c86 0 96 2 118 25 25 24 29 43 19 82 -4
14 -12 20 -22 17 -15 -5 -15 -4 -1 5 18 12 27 107 9 96 -6 -4 -7 -11 -4 -17 4
-7 0 -7 -13 0 -18 10 -20 8 -18 -20 2 -24 0 -28 -9 -17 -7 9 -27 13 -58 11
-43 -3 -48 -1 -48 17 0 18 6 21 48 21 48 0 82 13 69 26 -4 4 -40 8 -81 8 l-74
1 -9 -78z m137 -40 c0 -4 6 -5 13 -1 6 4 2 -3 -10 -15 -29 -28 -93 -30 -93 -3
0 10 3 22 7 26 10 9 83 4 83 -7z"/>
<path d="M1448 1536 c-15 -11 -18 -29 -18 -95 0 -80 1 -82 22 -79 20 3 23 8
20 41 -3 31 -1 37 16 37 12 0 28 -14 41 -35 23 -39 47 -53 63 -37 7 7 5 19
-10 39 -19 27 -16 52 9 73 3 3 0 20 -8 38 -12 30 -16 32 -66 32 -28 0 -60 -7
-69 -14z m81 -42 c-12 -15 -41 -19 -52 -7 -13 12 13 30 38 25 20 -3 23 -7 14
-18z"/>
<path d="M216 1372 c-3 -5 1 -9 9 -9 8 0 15 4 15 9 0 4 -4 8 -9 8 -6 0 -12 -4
-15 -8z"/>
<path d="M1530 1371 c0 -7 -4 -10 -9 -7 -5 3 -12 -1 -15 -10 -3 -8 -11 -12
-17 -8 -7 4 -17 0 -23 -8 -6 -8 -18 -17 -26 -21 -8 -3 2 -6 22 -6 20 -1 40 3
43 9 4 6 18 4 37 -6 25 -13 32 -14 39 -2 18 28 10 40 -26 36 -27 -3 -32 -1
-23 9 6 8 8 16 4 20 -3 3 -6 1 -6 -6z m30 -35 c0 -3 -4 -8 -10 -11 -5 -3 -10
-1 -10 4 0 6 5 11 10 11 6 0 10 -2 10 -4z"/>
<path d="M1733 1058 c-32 -15 -56 -72 -48 -111 11 -51 42 -77 92 -77 24 0 43
-4 43 -10 0 -5 -7 -7 -15 -4 -8 4 -15 1 -15 -5 0 -6 -5 -11 -11 -11 -5 0 -8 4
-5 9 4 5 -3 7 -14 4 -11 -3 -20 -9 -20 -14 0 -15 -27 -10 -34 6 -3 8 -13 15
-22 15 -14 0 -12 -4 7 -21 17 -14 32 -19 51 -15 16 3 28 2 28 -3 0 -10 56 -6
97 7 22 7 33 7 35 0 5 -15 48 -21 48 -6 0 6 3 8 7 5 3 -4 12 -2 20 5 11 9 12
7 6 -8 -6 -17 -5 -17 10 -5 9 7 14 18 10 24 -3 6 -1 7 5 3 6 -4 8 -14 5 -22
-5 -14 -3 -14 15 -3 14 9 19 20 16 37 -4 22 -3 24 11 12 8 -7 13 -15 10 -18
-6 -6 14 -32 25 -32 4 0 12 12 19 27 10 22 14 24 22 12 13 -21 11 -29 -6 -23
-9 4 -15 0 -15 -8 0 -12 19 -15 98 -16 119 -1 157 9 170 48 11 30 6 70 -9 70
-5 0 -4 10 2 23 6 14 7 37 1 62 l-9 40 -4 -37 c-3 -20 -1 -34 3 -32 4 3 5 -2
1 -12 -5 -15 -7 -15 -15 0 -5 9 -7 26 -4 39 3 12 3 16 0 9 -3 -6 -11 -9 -16
-5 -7 4 -9 -2 -6 -15 4 -12 1 -25 -4 -29 -7 -3 -8 -1 -4 5 5 9 -9 12 -49 12
-53 0 -56 1 -53 23 3 22 7 23 81 26 15 1 27 6 27 11 0 6 -32 10 -75 10 l-75 0
0 -82 c0 -90 -7 -128 -22 -128 -6 0 -7 7 -4 16 6 17 -22 74 -37 74 -5 0 1 15
12 34 12 18 21 39 21 46 0 25 -35 39 -96 40 l-61 0 -7 -61 c-9 -89 -8 -137 4
-142 6 -3 5 -4 -2 -3 -7 1 -14 12 -16 24 -2 12 -8 20 -13 17 -5 -4 -9 29 -9
79 0 75 -2 86 -17 86 -16 0 -18 -11 -17 -100 0 -91 -6 -120 -19 -87 -4 9 -8 8
-16 -3 -7 -10 -11 -11 -11 -3 0 8 -7 10 -17 6 -14 -6 -13 -2 5 21 26 34 29 95
6 131 -9 14 -32 29 -53 35 -42 12 -40 12 -68 -2z m356 -54 c-16 -19 -63 -14
-67 8 -4 19 33 29 61 15 15 -7 16 -11 6 -23z m-265 -5 c20 -59 -24 -106 -74
-79 -23 12 -28 78 -8 98 22 22 71 10 82 -19z m258 -89 c27 -33 29 -71 2 -49
-8 6 -12 15 -9 19 3 5 1 11 -5 15 -5 3 -10 1 -10 -6 0 -7 -3 -9 -7 -6 -9 9
-34 -13 -27 -24 3 -5 -2 -6 -11 -2 -9 3 -13 9 -8 12 5 3 9 20 8 36 -4 64 17
65 67 5z m251 43 c-7 -2 -13 -9 -13 -14 0 -4 8 -5 17 -2 15 6 16 5 3 -9 -8 -9
-16 -12 -18 -7 -2 5 -8 9 -13 9 -6 0 -8 -4 -5 -9 6 -9 -63 -20 -83 -13 -12 4
-15 35 -4 45 3 4 34 7 67 6 34 0 55 -3 49 -6z m37 -53 c0 -5 -2 -10 -4 -10 -3
0 -8 5 -11 10 -3 6 -1 10 4 10 6 0 11 -4 11 -10z m-127 -37 c-13 -2 -33 -2
-45 0 -13 2 -3 4 22 4 25 0 35 -2 23 -4z"/>
<path d="M1510 1050 c0 -25 42 -165 55 -184 17 -23 20 -40 6 -31 -5 3 -12 1
-15 -4 -10 -15 30 -19 60 -6 37 16 67 52 52 61 -5 4 -13 3 -17 -2 -3 -5 -14
-10 -23 -10 -13 -1 -17 4 -14 20 9 47 19 76 25 76 4 0 8 6 8 13 0 6 3 27 7 45
6 24 4 32 -7 32 -12 0 -39 -49 -56 -103 -5 -15 -9 -12 -23 15 -10 18 -22 45
-27 61 -10 26 -31 38 -31 17z m90 -190 c0 -5 -4 -10 -10 -10 -5 0 -10 5 -10
10 0 6 5 10 10 10 6 0 10 -4 10 -10z"/>
<path d="M911 952 c-51 -4 -64 -17 -115 -113 -20 -37 -42 -72 -51 -79 -8 -7
-15 -20 -15 -30 0 -9 -9 -25 -20 -35 -11 -10 -20 -23 -20 -29 0 -6 -11 -32
-25 -57 -24 -46 -24 -47 -4 -52 27 -7 819 -8 830 -1 5 3 1 17 -9 32 -21 30
-43 78 -63 135 -7 20 -17 37 -21 37 -4 0 -8 6 -8 13 0 8 -9 24 -19 36 -10 12
-22 38 -26 58 -4 21 -19 49 -33 63 -27 24 -29 25 -192 25 -91 0 -185 -1 -209
-3z"/>
<path d="M1421 760 c0 -8 6 -23 13 -33 12 -15 15 -16 26 -2 11 13 10 14 -4 9
-11 -4 -19 1 -25 17 -5 13 -10 17 -10 9z"/>
<path d="M839 500 c-1 -3 -3 -14 -5 -25 -1 -11 -6 -38 -10 -60 -5 -28 -3 -37
4 -30 16 15 33 98 21 110 -5 5 -10 7 -10 5z"/>
<path d="M976 491 c-4 -7 -5 -15 -2 -18 9 -9 19 4 14 18 -4 11 -6 11 -12 0z"/>
<path d="M1191 472 c-7 -16 -11 -45 -9 -63 l4 -34 12 28 c14 33 25 34 40 3 10
-23 16 -25 62 -21 58 4 79 22 80 67 0 37 -31 54 -68 36 -22 -11 -28 -21 -32
-58 l-5 -45 -18 35 c-18 34 -18 35 2 49 31 20 25 34 -6 17 -24 -12 -29 -12
-38 1 -10 13 -14 11 -24 -15z m164 -20 c-2 -27 -14 -42 -36 -42 -13 0 -19 7
-19 23 0 29 7 37 35 37 15 0 21 -6 20 -18z"/>
<path d="M1405 460 c-10 -61 -1 -79 38 -73 18 3 35 10 39 16 11 18 21 88 13
95 -9 10 -25 -20 -25 -49 0 -33 -26 -57 -42 -41 -8 8 -9 21 -1 46 6 19 8 37 5
40 -13 13 -21 4 -27 -34z"/>
<path d="M1542 487 c-5 -6 -19 -31 -31 -54 -21 -42 -18 -56 7 -31 10 10 19 8
43 -6 30 -18 31 -18 26 0 -3 11 -8 36 -12 56 -7 42 -18 54 -33 35z m14 -54
c-10 -10 -19 5 -10 18 6 11 8 11 12 0 2 -7 1 -15 -2 -18z"/>
<path d="M1760 493 c-55 -19 -52 -117 3 -109 32 4 58 35 55 63 -3 29 -35 53
-58 46z m27 -21 c7 -4 10 -16 8 -27 -2 -11 -4 -23 -4 -27 -1 -5 -12 -8 -26 -8
-19 0 -25 5 -25 23 0 21 16 47 30 47 3 0 10 -4 17 -8z"/>
<path d="M1922 477 c-7 -16 -12 -34 -12 -41 0 -22 -29 -41 -42 -28 -9 9 -8 18
0 37 7 15 10 31 7 36 -12 19 -23 8 -29 -33 -9 -53 9 -75 50 -61 22 7 30 18 37
48 10 53 4 79 -11 42z"/>
<path d="M504 472 c-6 -10 -15 -32 -18 -49 -6 -26 -4 -31 15 -36 35 -9 66 9
74 43 8 36 -7 60 -39 60 -12 0 -26 -8 -32 -18z m46 -7 c10 -12 9 -20 -4 -40
-23 -34 -36 -31 -36 8 0 48 16 61 40 32z"/>
<path d="M702 469 c-15 -38 -18 -78 -7 -79 6 -1 12 7 14 17 4 24 21 44 32 38
4 -3 4 -17 -1 -30 -7 -20 -6 -25 5 -25 8 0 15 9 15 19 0 11 3 26 6 35 4 11 0
16 -14 16 -12 0 -25 8 -31 18 -9 15 -11 14 -19 -9z"/>
<path d="M800 480 c0 -5 5 -10 10 -10 6 0 10 5 10 10 0 6 -4 10 -10 10 -5 0
-10 -4 -10 -10z"/>
<path d="M1621 453 c-13 -47 -14 -73 -2 -73 5 0 12 11 15 25 8 33 24 32 37 -2
6 -18 13 -23 20 -16 7 7 6 19 -2 36 -10 23 -9 30 6 47 15 17 16 20 3 20 -9 0
-21 -7 -28 -15 -7 -8 -16 -15 -21 -15 -5 0 -6 7 -3 15 4 8 1 15 -4 15 -6 0
-16 -17 -21 -37z"/>
<path d="M1985 470 c4 -6 11 -8 16 -5 14 9 11 15 -7 15 -8 0 -12 -5 -9 -10z"/>
<path d="M897 461 c-10 -4 -19 -11 -19 -16 0 -6 -5 -16 -10 -23 -14 -16 -1
-29 35 -36 20 -3 27 -1 28 12 0 9 2 27 3 39 3 25 -10 33 -37 24z m13 -15 c0
-3 -4 -8 -10 -11 -5 -3 -10 -1 -10 4 0 6 5 11 10 11 6 0 10 -2 10 -4z m0 -30
c0 -3 -4 -8 -10 -11 -5 -3 -10 -1 -10 4 0 6 5 11 10 11 6 0 10 -2 10 -4z"/>
<path d="M1018 463 c-9 -3 -20 -13 -23 -24 -3 -10 -8 -28 -11 -39 -4 -15 -2
-18 10 -14 9 3 16 13 16 22 0 8 7 24 17 34 18 20 16 26 -9 21z"/>
<path d="M1055 446 c-24 -36 1 -74 40 -60 23 9 18 26 -5 19 -11 -4 -20 -2 -20
4 0 6 11 11 25 11 27 0 33 18 13 38 -18 18 -36 14 -53 -12z m45 -6 c0 -5 -7
-10 -16 -10 -8 0 -12 5 -9 10 3 6 10 10 16 10 5 0 9 -4 9 -10z"/>
<path d="M586 429 c-9 -44 -8 -49 8 -49 9 0 12 7 9 19 -3 11 4 27 18 40 l23
21 -26 0 c-21 0 -27 -6 -32 -31z"/>
<path d="M786 438 c-3 -13 -6 -32 -6 -43 1 -20 1 -20 15 -1 16 22 20 66 6 66
-5 0 -11 -10 -15 -22z"/>
<path d="M955 429 c-8 -34 1 -51 15 -29 12 19 13 60 1 60 -5 0 -12 -14 -16
-31z"/>
<path d="M1805 337 c-5 -18 -13 -24 -32 -24 -28 0 -43 -17 -43 -49 0 -26 16
-34 53 -27 23 5 27 11 33 60 7 56 0 83 -11 40z m-18 -53 c1 -5 -2 -16 -7 -24
-12 -20 -33 0 -24 24 7 17 25 17 31 0z"/>
<path d="M531 324 c-6 -15 -10 -29 -7 -31 3 -3 1 -16 -4 -29 -7 -18 -6 -24 4
-24 9 0 18 18 25 48 11 53 1 76 -18 36z"/>
<path d="M1305 323 c-3 -15 -10 -42 -14 -59 -8 -30 -7 -31 23 -29 40 2 52 9
59 35 6 22 -19 54 -34 45 -5 -4 -9 1 -9 9 0 28 -19 27 -25 -1z m42 -39 c7 -18
-11 -39 -25 -30 -12 7 -4 46 9 46 6 0 12 -7 16 -16z"/>
<path d="M47 322 c-10 -10 -17 -33 -17 -50 0 -26 5 -33 26 -38 28 -7 61 16 50
35 -5 8 -12 6 -22 -4 -21 -20 -34 -10 -34 25 0 31 25 47 47 29 15 -13 28 -6
18 10 -10 17 -50 13 -68 -7z"/>
<path d="M500 329 c0 -5 5 -7 10 -4 6 3 10 8 10 11 0 2 -4 4 -10 4 -5 0 -10
-5 -10 -11z"/>
<path d="M786 320 c-13 -56 -11 -85 4 -85 10 0 14 8 12 23 -2 13 1 29 7 36 8
9 7 18 -3 32 -14 18 -15 18 -20 -6z"/>
<path d="M1055 330 c3 -5 8 -10 11 -10 2 0 4 5 4 10 0 6 -5 10 -11 10 -5 0 -7
-4 -4 -10z"/>
<path d="M2015 324 c-17 -39 -17 -81 1 -88 12 -4 15 -2 10 9 -3 8 -1 27 4 41
12 32 -2 67 -15 38z"/>
<path d="M2158 333 c7 -3 16 -2 19 1 4 3 -2 6 -13 5 -11 0 -14 -3 -6 -6z"/>
<path d="M593 310 c-13 -5 -23 -13 -23 -18 0 -5 10 -17 23 -26 l22 -16 -27 6
c-30 7 -40 -12 -12 -23 23 -9 65 14 58 32 -3 8 -12 15 -19 15 -8 0 -17 5 -21
11 -5 9 1 10 21 5 25 -6 27 -5 16 8 -8 9 -14 16 -15 15 0 0 -11 -4 -23 -9z"/>
<path d="M708 307 c-25 -20 -28 -44 -9 -61 10 -9 25 -14 35 -10 23 9 20 23 -4
17 -11 -3 -20 0 -20 6 0 6 11 11 25 11 30 0 34 25 6 39 -13 7 -23 7 -33 -2z
m32 -17 c0 -5 -7 -10 -16 -10 -8 0 -12 5 -9 10 3 6 10 10 16 10 5 0 9 -4 9
-10z"/>
<path d="M885 305 c-20 -14 -20 -15 5 -36 l25 -21 -29 7 c-26 5 -28 4 -17 -9
14 -17 45 -16 62 1 13 13 3 33 -17 33 -8 0 -14 5 -14 11 0 6 7 8 16 5 10 -4
14 -1 12 6 -6 18 -22 20 -43 3z"/>
<path d="M995 312 c-11 -2 -26 -9 -32 -14 -34 -28 7 -80 45 -59 13 7 22 7 29
0 14 -14 26 5 28 43 2 34 -16 32 -26 -3 -6 -20 -7 -21 -8 -4 -2 29 -13 41 -36
37z m15 -37 c0 -16 -27 -28 -36 -14 -7 12 15 41 27 33 5 -3 9 -11 9 -19z"/>
<path d="M1203 312 c-13 -2 -23 -7 -23 -12 0 -5 10 -19 23 -31 l22 -21 -22 7
c-17 5 -23 2 -23 -9 0 -20 43 -21 60 -1 13 16 6 35 -15 35 -8 0 -17 5 -21 11
-5 9 1 10 20 5 14 -3 26 -2 26 3 0 12 -20 18 -47 13z"/>
<path d="M1842 304 c-12 -8 -22 -24 -22 -34 0 -22 35 -44 56 -36 22 9 17 28
-6 21 -11 -4 -20 -2 -20 4 0 6 11 11 25 11 27 0 33 18 13 38 -15 15 -19 15
-46 -4z m38 -8 c0 -3 -4 -8 -10 -11 -5 -3 -10 -1 -10 4 0 6 5 11 10 11 6 0 10
-2 10 -4z"/>
<path d="M2333 304 c-17 -13 -17 -15 7 -34 l25 -21 -28 7 c-21 5 -26 3 -22 -8
5 -13 21 -15 58 -9 15 2 6 29 -15 45 l-23 17 28 -6 c30 -6 38 10 7 18 -10 3
-27 -1 -37 -9z"/>
<path d="M131 296 c-16 -19 -11 -46 12 -60 25 -16 52 4 52 40 0 24 -5 30 -26
32 -14 2 -31 -4 -38 -12z m49 -15 c0 -24 -18 -37 -31 -24 -13 13 -1 43 17 43
8 0 14 -9 14 -19z"/>
<path d="M225 280 c-8 -35 -7 -39 2 -42 4 -2 10 10 13 26 7 42 34 49 28 7 -6
-38 17 -43 26 -6 9 34 1 45 -34 45 -23 0 -30 -5 -35 -30z"/>
<path d="M320 290 c0 -11 7 -20 15 -20 8 0 15 -5 15 -11 0 -6 -9 -8 -20 -4
-21 7 -28 -9 -9 -20 16 -10 59 4 59 19 0 7 -10 21 -22 30 l-23 17 23 -6 c12
-4 22 -2 22 4 0 6 -13 11 -30 11 -23 0 -30 -4 -30 -20z"/>
<path d="M401 291 c-6 -11 -11 -24 -11 -30 0 -15 36 -32 54 -25 23 9 20 23 -4
17 -11 -3 -20 0 -20 6 0 6 12 11 26 11 19 0 25 5 22 18 -5 26 -54 28 -67 3z
m49 -1 c0 -5 -7 -10 -15 -10 -8 0 -15 5 -15 10 0 6 7 10 15 10 8 0 15 -4 15
-10z"/>
<path d="M486 279 c-7 -39 5 -64 15 -29 10 36 10 60 0 60 -5 0 -11 -14 -15
-31z"/>
<path d="M1086 279 c-9 -45 -8 -49 9 -43 8 4 13 9 11 13 -6 11 13 51 25 51 7
0 9 -10 6 -30 -4 -16 -2 -32 2 -35 11 -6 21 18 21 51 0 21 -5 24 -34 24 -30 0
-34 -4 -40 -31z"/>
<path d="M1387 278 c-6 -40 -6 -40 33 -44 24 -3 30 0 30 16 0 11 5 20 10 20 6
0 10 -6 10 -14 0 -8 9 -18 20 -21 23 -7 53 12 44 27 -3 5 -12 4 -20 -3 -18
-15 -28 -6 -20 19 5 14 13 18 26 15 11 -3 20 0 20 6 0 18 -51 13 -66 -6 -13
-17 -13 -17 -14 0 0 20 -20 24 -20 4 0 -7 -7 -22 -16 -33 -14 -18 -15 -17 -11
14 2 20 -1 32 -9 32 -6 0 -14 -15 -17 -32z"/>
<path d="M1561 292 c-23 -42 20 -81 50 -46 15 19 4 31 -15 15 -10 -9 -16 -9
-21 -1 -10 17 13 39 35 33 11 -3 20 0 20 6 0 19 -58 13 -69 -7z"/>
<path d="M1644 296 c-11 -28 0 -61 21 -62 37 -1 56 15 53 44 -2 22 -9 28 -36
30 -21 2 -34 -2 -38 -12z m42 -33 c-5 -12 -10 -13 -18 -5 -8 8 -8 15 3 28 15
18 25 4 15 -23z"/>
<path d="M1916 279 c-9 -45 6 -59 19 -18 14 42 31 40 27 -4 -2 -30 -2 -31 13
-13 8 11 15 30 15 43 0 19 -5 23 -34 23 -29 0 -34 -4 -40 -31z"/>
<path d="M2060 299 c0 -6 9 -8 20 -4 29 9 24 -4 -6 -15 -37 -15 -28 -45 14
-45 30 0 32 2 32 38 0 35 -2 37 -30 37 -16 0 -30 -5 -30 -11z m35 -39 c-3 -5
-11 -10 -16 -10 -6 0 -7 5 -4 10 3 6 11 10 16 10 6 0 7 -4 4 -10z"/>
<path d="M2142 278 c-5 -18 -5 -37 -1 -42 12 -13 15 -7 22 37 7 46 -9 49 -21
5z"/>
<path d="M2176 277 c-8 -41 10 -59 19 -19 8 37 35 52 35 19 0 -28 11 -43 30
-41 37 3 41 5 35 15 -4 6 -13 8 -21 5 -8 -3 -14 -1 -14 4 0 6 11 10 24 10 19
0 23 4 19 19 -4 17 -14 20 -63 20 -57 -1 -58 -1 -64 -32z m104 13 c0 -5 -4
-10 -10 -10 -5 0 -10 5 -10 10 0 6 5 10 10 10 6 0 10 -4 10 -10z"/>
<path d="M13 130 c-11 -55 1 -70 15 -18 l8 32 13 -32 c22 -52 33 -44 46 31 4
27 3 37 -4 32 -6 -3 -11 -17 -11 -31 0 -34 -16 -30 -23 6 -10 47 -33 37 -44
-20z"/>
<path d="M1526 145 c-4 -20 -10 -43 -13 -51 -5 -12 2 -15 33 -12 73 6 88 89
17 96 -28 3 -31 0 -37 -33z m64 -8 c0 -24 -26 -50 -44 -44 -12 5 -15 13 -10
34 4 16 9 31 11 36 6 11 43 -12 43 -26z"/>
<path d="M1635 168 c-18 -57 -23 -88 -11 -88 7 0 17 23 22 50 6 28 7 50 2 50
-5 0 -10 -6 -13 -12z"/>
<path d="M1675 148 c-4 -18 -9 -41 -11 -50 -5 -15 1 -18 38 -17 37 1 39 2 14
8 -41 8 -46 31 -7 31 37 0 50 18 16 22 -35 4 -35 22 1 29 28 6 28 7 -8 8 -33
1 -37 -2 -43 -31z"/>
<path d="M1774 145 c-9 -48 0 -65 35 -65 24 0 31 6 40 31 18 53 12 79 -7 29
-11 -27 -25 -46 -36 -48 -17 -4 -18 1 -13 42 8 54 -9 63 -19 11z"/>
<path d="M2342 134 c0 -26 -5 -51 -11 -57 -6 -6 -11 -16 -11 -21 1 -6 10 0 20
13 21 24 28 95 11 105 -5 4 -9 -15 -9 -40z"/>
<path d="M1392 158 c-17 -17 -16 -78 2 -78 9 0 12 8 8 26 -2 14 0 29 6 33 6 4
8 12 3 19 -5 9 -10 9 -19 0z"/>
<path d="M2294 159 c-13 -21 -11 -78 2 -83 9 -4 13 2 12 17 0 12 3 34 7 50 7
27 -7 38 -21 16z"/>
<path d="M130 142 c-17 -13 -21 -24 -16 -40 8 -24 44 -30 64 -10 17 17 15 55
-4 62 -21 8 -19 9 -44 -12z m40 -21 c0 -24 -18 -37 -31 -24 -13 13 -1 43 17
43 8 0 14 -9 14 -19z"/>
<path d="M221 146 c-14 -17 -7 -36 15 -36 8 0 14 -5 14 -11 0 -7 -10 -9 -26
-5 -17 5 -23 3 -19 -4 3 -5 19 -10 36 -10 35 0 38 21 7 44 l-23 17 23 -5 c15
-3 22 0 19 7 -6 18 -32 20 -46 3z"/>
<path d="M364 152 c-20 -3 -34 -27 -34 -59 0 -26 18 -12 24 17 8 43 37 41 30
-2 l-5 -33 18 33 c21 40 37 42 28 2 -4 -18 -2 -30 3 -30 12 0 27 59 17 68 -7
7 -45 9 -81 4z"/>
<path d="M483 153 c-21 -8 -14 -25 7 -18 11 3 20 2 20 -4 0 -5 -10 -11 -22
-13 -13 -2 -24 -11 -26 -20 -3 -14 4 -18 31 -18 31 0 35 3 41 32 8 40 -13 57
-51 41z m22 -53 c-3 -5 -10 -10 -16 -10 -5 0 -9 5 -9 10 0 6 7 10 16 10 8 0
12 -4 9 -10z"/>
<path d="M623 153 c-13 -2 -23 -5 -23 -6 0 -1 -4 -17 -9 -35 -7 -24 -7 -32 3
-32 8 0 16 14 20 30 3 17 12 30 19 30 9 0 12 -9 9 -30 -3 -18 0 -30 7 -30 6 0
12 11 13 25 0 14 1 30 2 37 1 13 -11 17 -41 11z"/>
<path d="M703 153 c-20 -7 -15 -29 10 -47 l22 -17 -27 6 c-17 3 -28 1 -28 -5
0 -16 63 -8 68 8 2 7 -5 16 -17 19 -12 3 -21 10 -21 15 0 6 9 8 21 5 13 -3 19
-1 16 6 -4 13 -26 18 -44 10z"/>
<path d="M820 145 c-13 -16 -6 -35 15 -35 8 0 17 -5 21 -12 5 -8 -2 -9 -27 -4
-24 5 -30 3 -22 -5 14 -14 65 -8 71 8 2 7 -8 17 -22 23 -33 12 -34 24 -1 16
27 -7 35 8 9 18 -23 9 -30 8 -44 -9z"/>
<path d="M906 144 c-27 -26 -17 -59 18 -59 36 0 56 27 40 53 -15 24 -38 26
-58 6z m42 -26 c-4 -29 -38 -38 -38 -10 0 22 8 32 27 32 9 0 13 -8 11 -22z"/>
<path d="M1042 148 c-7 -7 -12 -25 -12 -40 0 -21 5 -28 20 -28 11 0 20 -5 20
-11 0 -7 -10 -9 -25 -5 -25 6 -36 -8 -12 -17 28 -10 51 10 63 56 10 38 9 47
-1 47 -7 0 -19 2 -27 5 -7 3 -19 0 -26 -7z m38 -27 c0 -11 -5 -23 -11 -27 -15
-9 -33 12 -26 30 9 23 37 20 37 -3z"/>
<path d="M1144 150 c-14 -5 -23 -20 -26 -39 -5 -37 13 -37 22 -1 3 13 12 26
19 28 10 3 12 -4 9 -27 -5 -37 9 -42 18 -6 7 27 0 55 -13 54 -4 0 -18 -4 -29
-9z"/>
<path d="M1226 147 c-28 -20 -18 -61 17 -65 15 -2 27 1 27 6 0 6 -9 8 -20 5
-11 -3 -20 0 -20 6 0 6 11 11 25 11 27 0 33 18 13 38 -15 15 -20 15 -42 -1z
m34 -17 c0 -5 -4 -10 -10 -10 -5 0 -10 5 -10 10 0 6 5 10 10 10 6 0 10 -4 10
-10z"/>
<path d="M1313 153 c-14 -3 -23 -12 -23 -23 0 -10 -3 -25 -6 -34 -3 -9 -2 -16
4 -16 6 0 15 14 21 30 5 17 15 30 22 30 7 0 9 -10 6 -30 -8 -39 9 -39 18 0 6
29 0 51 -13 49 -4 -1 -17 -4 -29 -6z"/>
<path d="M1926 144 c-23 -23 -17 -58 12 -62 28 -4 19 -22 -11 -23 -21 0 -21
-1 2 -10 31 -12 47 3 54 48 3 17 8 37 12 42 3 6 0 11 -9 11 -8 0 -21 3 -29 6
-8 3 -22 -2 -31 -12z m38 -13 c9 -14 -4 -41 -20 -41 -8 0 -14 8 -14 18 0 29
22 43 34 23z"/>
<path d="M2118 149 c-11 -6 -18 -22 -18 -39 0 -27 3 -30 33 -29 23 1 26 3 10
6 -31 6 -29 23 2 23 27 0 33 18 13 38 -14 14 -18 14 -40 1z m27 -19 c-3 -5
-10 -10 -16 -10 -5 0 -9 5 -9 10 0 6 7 10 16 10 8 0 12 -4 9 -10z"/>
<path d="M2208 153 c-10 -2 -18 -5 -18 -6 0 -1 -4 -17 -9 -35 -11 -39 5 -45
19 -7 5 14 17 28 25 31 8 4 15 10 15 15 0 9 -4 10 -32 2z"/>
<path d="M2244 133 c-3 -15 -8 -34 -10 -41 -2 -8 1 -12 8 -10 15 5 29 66 17
74 -5 2 -11 -8 -15 -23z"/>
<path d="M557 137 c-4 -10 -7 -31 -6 -45 l0 -27 10 25 c5 13 8 33 7 45 -3 19
-4 19 -11 2z"/>
<path d="M986 118 c-6 -30 -2 -47 9 -36 11 10 17 68 8 68 -6 0 -13 -14 -17
-32z"/>
<path d="M2010 115 c0 -32 3 -35 29 -35 29 0 41 14 41 51 0 29 -18 23 -22 -8
-2 -17 -10 -29 -20 -31 -15 -3 -17 2 -12 27 4 20 2 31 -5 31 -6 0 -11 -16 -11
-35z"/>
<path d="M1470 79 c0 -5 5 -7 10 -4 6 3 10 8 10 11 0 2 -4 4 -10 4 -5 0 -10
-5 -10 -11z"/>
</g>
</svg>
